<svg xmlns="http://www.w3.org/2000/svg" width="100%" height="auto" viewBox="0 0 1024 1024" version="1.1"><defs>
    <linearGradient id="gold-grad" x1="0%" y1="0%" x2="100%" y2="100%">
        <stop offset="0%" stop-color="#bf953f" />
        <stop offset="25%" stop-color="#fcf6ba" />
        <stop offset="50%" stop-color="#b38728" />
        <stop offset="75%" stop-color="#fbf5b7" />
        <stop offset="100%" stop-color="#aa771c" />
    </linearGradient>
</defs>
	<path d="M 200 1.523 C 128.403 9.706, 67.841 48.810, 31.010 110.641 C 16.833 134.441, 7.630 160.536, 2.319 192 C 0.656 201.855, 0.526 220.781, 0.203 500 C -0.155 810.604, -0.132 812.542, 4.103 834.698 C 17.653 905.587, 63.926 965.219, 129.234 995.956 C 147.377 1004.494, 165.275 1010.026, 188.500 1014.273 L 200.500 1016.467 503 1016.782 C 713.908 1017.001, 809.544 1016.768, 818.856 1016.013 C 894.786 1009.856, 962.761 964.773, 998.303 897 C 1009.701 875.267, 1018.199 848.969, 1021.408 825.500 C 1022.235 819.450, 1023.224 812.475, 1023.604 810 C 1024.619 803.408, 1025.161 211, 1024.153 211 C 1023.684 211, 1023.017 207.026, 1022.673 202.170 C 1021.862 190.743, 1018.759 174.795, 1014.488 160.098 C 992.723 85.203, 930.256 25.332, 854.733 6.982 C 826.257 0.064, 856.231 0.647, 517.500 0.417 C 270.161 0.249, 209.295 0.461, 200 1.523 M 208 28.627 C 154.874 35.820, 106.547 64.273, 74.031 107.500 C 52.145 136.597, 39.197 168.825, 33.856 207.500 C 32.179 219.648, 32.325 785.312, 34.011 802.961 C 40.856 874.645, 83.599 935.903, 148.500 967.045 C 169.445 977.095, 184.989 981.812, 210 985.709 C 220.860 987.400, 237.818 987.500, 514.500 987.500 C 754.827 987.500, 809.118 987.258, 816.500 986.155 C 840.619 982.550, 859.622 976.735, 879.853 966.768 C 938.756 937.748, 979.705 883, 990.376 819 C 994.054 796.942, 994.108 791.787, 993.772 499.500 C 993.464 231.427, 993.326 211.808, 991.687 202 C 987.716 178.245, 982.275 160.601, 973.026 141.500 C 963.388 121.593, 951.720 104.910, 936.027 88.598 C 904.351 55.674, 863.592 34.925, 818 28.513 C 802.547 26.340, 224.094 26.448, 208 28.627 M 211 39.509 C 122.775 51.611, 55.563 120.681, 45.095 210 C 44.460 215.420, 44.029 323.390, 43.906 508 L 43.712 797.500 45.869 811.682 C 54.557 868.813, 86.665 918.082, 134.570 947.793 C 156.750 961.550, 184.937 971.696, 211.500 975.486 C 221.337 976.889, 253.748 977.021, 518 976.733 C 844.187 976.377, 816.163 976.934, 840 970.337 C 906.637 951.898, 958.392 899.977, 975.903 834 C 983.029 807.153, 982.500 833.461, 982.500 506 L 982.500 211.500 979.759 197.308 C 968.621 139.628, 936.344 93.251, 886.911 63.899 C 864.550 50.621, 840.150 42.524, 812.026 39.047 C 798.453 37.370, 223.377 37.811, 211 39.509 M 0.493 509 C 0.493 672.625, 0.609 739.562, 0.750 657.750 C 0.891 575.937, 0.891 442.062, 0.750 360.250 C 0.609 278.437, 0.493 345.375, 0.493 509 M 214 287.647 C 214 288.138, 218.322 292.806, 223.605 298.020 C 245.420 319.551, 256.214 332.189, 261.897 342.854 C 271.114 360.152, 276.372 364.756, 294.171 371.105 C 300.275 373.282, 305.451 374.883, 305.672 374.661 C 306.539 373.795, 299.904 355.241, 297.210 350.996 C 292.873 344.162, 285.080 337.772, 275.316 333.043 C 264.020 327.573, 257.573 322.956, 235.497 304.528 C 213.453 286.126, 214 286.555, 214 287.647 M 279.388 306.101 C 307.929 333.764, 313.267 341.918, 315.030 360.541 C 316.299 373.940, 317.829 378.325, 324.216 386.864 C 328.920 393.151, 335.616 399.881, 337.250 399.962 C 338.395 400.020, 338.143 378.139, 336.922 371.536 C 334.630 359.138, 327.549 347.698, 312.534 332.136 C 298.681 317.778, 266.465 290, 263.665 290 C 263.177 290, 270.252 297.245, 279.388 306.101 M 623.742 293.169 C 585.689 297.079, 551.896 317.699, 535.727 346.872 L 532.220 353.198 535.991 361.358 C 542.745 375.978, 546.998 392.309, 548.529 409.500 C 550.917 436.312, 573.250 464.981, 613 492.260 C 618.225 495.846, 633.750 505.624, 647.500 513.989 C 693.509 541.979, 713.562 559.045, 727.466 582.045 C 732.653 590.625, 738.513 606.480, 739.462 614.500 C 739.986 618.930, 739.614 618.302, 736.200 609 C 729.457 590.628, 724.225 582.294, 710.547 568.136 C 695.241 552.293, 680.726 541.766, 643.500 519.507 C 590.661 487.912, 567.274 467.046, 554.043 439.689 L 549.298 429.878 548.650 437.189 C 548.294 441.210, 547.031 449.538, 545.844 455.695 L 543.687 466.891 549.298 473.836 C 562.314 489.945, 581.601 505.082, 621.136 530.214 C 657.798 553.520, 676.772 566.270, 684.737 572.953 C 698.620 584.602, 708.493 598.803, 712.933 613.511 C 714.869 619.923, 715.453 620.776, 719.775 623.506 C 727.317 628.270, 742.899 641.151, 750.473 648.882 C 754.308 652.797, 757.731 656, 758.079 656 C 758.945 656, 761.803 642.304, 763.059 632.136 C 765.142 615.255, 760.902 590.120, 753.195 573.675 C 740.148 545.833, 717.790 526.128, 660.500 491.980 C 617.715 466.477, 599.206 452.116, 585.776 434 C 568.345 410.488, 564.131 385.372, 573.112 358.521 C 577.275 346.075, 581.134 339.735, 589.931 330.892 C 602.483 318.275, 618.047 312.044, 637.090 312.015 C 671.221 311.962, 694.636 332.672, 702.669 370.016 C 705.492 383.141, 705.049 405.447, 701.714 418.119 C 696.494 437.948, 688.248 451.692, 672.429 466.928 C 666.592 472.550, 661.970 477.269, 662.158 477.414 C 662.346 477.559, 667.604 480.728, 673.841 484.458 C 683.472 490.215, 685.519 491.085, 687.411 490.223 C 692.404 487.948, 710.013 473.707, 717.568 465.833 C 737.024 445.559, 746.407 423.761, 747.706 395.817 C 749.761 351.623, 727.880 317.433, 687.178 301.239 C 667.784 293.523, 646.565 290.824, 623.742 293.169 M 297.500 297.764 C 298.050 298.248, 303.253 302.505, 309.063 307.224 L 319.626 315.805 363.563 316.278 C 403.496 316.708, 408.291 316.939, 416.176 318.816 C 456.125 328.324, 480.844 357.519, 487.575 403.142 C 489.632 417.089, 489.047 446.206, 486.474 457.929 C 484.048 468.981, 478.654 483.283, 473.883 491.314 C 469.171 499.245, 459.301 510, 456.733 510 C 454.882 510, 447.741 501.083, 446.070 496.685 C 445.481 495.137, 445 488.071, 445 480.984 C 445 459.646, 442.892 453.548, 428.608 433.562 C 423.474 426.378, 417.992 418.535, 416.426 416.132 C 413.412 411.509, 411.876 411.912, 414.326 416.682 C 415.121 418.232, 416.946 423.228, 418.381 427.786 C 420.809 435.498, 420.978 437.262, 420.824 453.286 C 420.674 468.888, 420.865 471.029, 422.863 476.147 C 425.080 481.829, 433.403 494.283, 439.641 501.253 C 442.995 505, 444.114 507.125, 441.750 505.257 C 424.564 491.676, 417.360 487.593, 406.635 485.357 C 400.233 484.022, 398.338 484.044, 387.336 485.582 C 371.426 487.806, 369.454 487.448, 342.500 477.457 C 333.945 474.286, 362.205 490.704, 385.742 502.578 C 396.850 508.183, 403.475 509.363, 418.993 508.503 L 431.500 507.809 438.500 511.459 C 467.563 526.614, 497.135 565.183, 507.114 600.948 C 508.952 607.539, 510.686 610.516, 520.731 624.337 C 527.062 633.047, 534.982 643.622, 538.331 647.837 C 545.907 657.373, 562.087 675.247, 562.641 674.693 C 562.867 674.466, 561.666 670.820, 559.972 666.589 C 548.304 637.449, 548.594 606.733, 560.782 580.724 L 564.701 572.360 559.937 566.930 C 557.316 563.944, 554.976 561.725, 554.736 562 C 554.497 562.275, 552.045 565.875, 549.289 570 C 540.377 583.336, 534.993 595.752, 531.464 611.105 L 529.994 617.500 530.507 610.921 C 531.630 596.530, 539.105 577.281, 548.289 565.129 L 553.104 558.757 550.565 555.129 C 549.169 553.133, 546.992 550.218, 545.728 548.651 L 543.430 545.801 536.612 553.028 C 529.586 560.477, 523.268 569.513, 518.567 578.841 L 515.874 584.181 512.410 576.952 C 508.071 567.900, 499.964 555.417, 490.132 542.649 L 482.539 532.791 486.520 529.658 C 500.369 518.757, 512.040 504.405, 520.395 488 C 542.401 444.793, 540.726 387.938, 516.365 351.232 C 498.544 324.380, 471.909 307.886, 433.411 299.860 C 422.854 297.659, 420.455 297.573, 359.500 297.235 C 323.178 297.033, 296.923 297.257, 297.500 297.764 M 215.823 333.750 C 224.242 345.565, 258.284 379.440, 272.135 389.784 C 288.937 402.331, 296.014 404.930, 316 405.893 C 323.975 406.277, 330.645 406.500, 330.823 406.389 C 331.564 405.927, 318.472 394.209, 313.347 390.748 C 306.848 386.358, 300.829 384.466, 288.694 382.996 C 283.850 382.410, 277.499 381.036, 274.579 379.944 C 264.844 376.302, 248.828 363.719, 227.923 343.290 C 215.496 331.146, 212.009 328.396, 215.823 333.750 M 334.202 340.500 C 334.377 341.050, 336.709 345.766, 339.385 350.980 C 346.859 365.541, 347.131 366.657, 347.921 386.007 L 348.635 403.513 352.546 410.955 C 355.134 415.880, 358.989 420.950, 363.946 425.948 L 371.436 433.500 372.280 428 C 372.744 424.975, 372.965 417.100, 372.770 410.500 C 372.474 400.485, 372.002 397.508, 369.916 392.500 C 366.486 384.270, 332.297 334.489, 334.202 340.500 M 376 378.876 C 376 379.357, 377.089 382.215, 378.421 385.226 C 382.712 394.928, 383.345 398.831, 383.490 416.500 C 383.653 436.375, 384.676 440.090, 393.045 451.206 C 397.749 457.454, 406.380 466, 407.987 466 C 409.238 466, 409.970 439.206, 408.880 433.308 C 408.310 430.226, 406.817 425.408, 405.562 422.602 C 403.346 417.645, 377.518 378, 376.505 378 C 376.227 378, 376 378.394, 376 378.876 M 266.472 401.638 C 272.490 407.192, 279.683 412.127, 291 418.464 C 295.675 421.082, 303.550 425.822, 308.500 428.998 C 324.358 439.170, 329.900 440.547, 350.791 439.502 L 365.193 438.782 361.347 434.812 C 355.716 429, 346.287 422.077, 340 419.140 C 334.968 416.789, 333.012 416.519, 317 415.974 C 301.467 415.446, 298.574 415.068, 291.262 412.611 C 286.732 411.089, 278.182 406.965, 272.262 403.446 L 261.500 397.048 266.472 401.638 M 276 506.450 C 276 547.453, 276.175 581, 276.388 581 C 276.602 581, 278.546 578.188, 280.708 574.750 C 289.153 561.325, 301.978 548.540, 313.750 541.810 L 319 538.809 319 502.047 L 319 465.285 298.830 449.392 C 287.737 440.652, 278.062 433.140, 277.330 432.700 C 276.228 432.038, 276 444.685, 276 506.450 M 308 443.307 C 308 443.593, 312.387 446.187, 317.750 449.071 C 323.113 451.955, 332 457.237, 337.500 460.810 C 357.680 473.917, 364.894 475.741, 388.500 473.702 L 402.500 472.493 394.680 465.996 C 385.239 458.154, 375.973 452.339, 370.619 450.897 C 368.030 450.200, 360.752 450.076, 349.576 450.539 L 332.490 451.246 321.995 447.712 C 316.223 445.767, 310.712 443.864, 309.750 443.481 C 308.788 443.099, 308 443.020, 308 443.307 M 534.057 487.370 L 530.659 495.163 532.965 502.322 C 538.493 519.489, 552.934 543.257, 567.052 558.428 C 570.160 561.768, 573.324 565.625, 574.083 567 C 575.034 568.722, 575.643 574.946, 576.041 587 C 576.591 603.651, 576.756 604.767, 579.434 610 C 582.396 615.788, 604.151 648.428, 606.762 651 C 608.538 652.750, 608.635 653.073, 604.343 643 C 601.716 636.835, 601.544 635.470, 601.004 616.500 C 600.450 597.050, 600.357 596.351, 597.621 591.093 C 596.073 588.119, 591.248 580.959, 586.898 575.181 C 582.549 569.404, 579.206 564.461, 579.470 564.197 C 579.733 563.933, 583.223 566.129, 587.225 569.076 C 599.262 577.943, 608.293 583.689, 612.102 584.906 C 614.315 585.614, 622.022 585.993, 632.102 585.892 L 648.500 585.727 658.863 589.417 C 664.563 591.447, 669.420 592.913, 669.658 592.675 C 669.896 592.438, 666.496 590.136, 662.103 587.561 C 657.711 584.985, 649.174 579.376, 643.134 575.095 C 626.654 563.416, 624.742 562.761, 605 562.038 C 585.371 561.319, 583.670 560.678, 574.032 550.375 C 556.587 531.726, 545.953 511.877, 538.760 484.538 L 537.455 479.577 534.057 487.370 M 573.111 523.007 L 566.819 527.073 570.572 531.787 C 576.004 538.609, 583.252 546, 584.509 546 C 585.106 546, 587.358 544.194, 589.514 541.986 C 591.670 539.778, 595.128 536.797, 597.199 535.362 C 599.270 533.927, 600.745 532.397, 600.476 531.962 C 599.901 531.031, 583.172 520.387, 580.936 519.529 C 580.054 519.190, 576.729 520.668, 573.111 523.007 M 436.558 526.906 C 435.742 528.226, 419.785 533.838, 410.500 536.069 C 405.450 537.282, 395.493 538.365, 383.500 539.004 C 354.367 540.557, 341.083 543.285, 326.836 550.641 C 306.649 561.063, 289.557 581.168, 282.551 602.732 C 277.488 618.316, 276.854 624.592, 276.010 667.500 C 275.532 691.760, 274.712 711.036, 274.001 714.712 C 271.449 727.907, 262.388 737.058, 250.392 738.557 C 245.271 739.197, 245 739.375, 245 742.115 L 245 745 299 745 L 353 745 353 742 C 353 739.376, 352.646 739, 350.182 739 C 343.411 739, 336.785 735.945, 330.994 730.154 C 320.184 719.344, 318.993 711.855, 319.038 655 C 319.073 610.216, 319.694 603.526, 324.828 592.554 C 333.354 574.335, 354.153 567.420, 376.770 575.285 C 396.298 582.076, 415.616 602.390, 447.085 649.224 C 463.647 673.873, 474.553 687.655, 488.450 701.500 C 495.628 708.650, 505.775 717.539, 511 721.253 C 542.036 743.317, 583.976 754.379, 624.292 751.137 C 645.885 749.400, 666.015 744.183, 681.143 736.402 L 686.786 733.500 676.840 723.051 L 666.895 712.601 663.697 713.909 C 652.354 718.549, 647.742 719.316, 631 719.349 C 611.240 719.389, 604.001 717.802, 588.500 710.033 C 564.105 697.806, 544.293 677.868, 510.466 631.500 C 490.944 604.742, 483.112 595.493, 469.462 583.078 C 458.944 573.512, 441.581 563.211, 427 557.886 L 420.500 555.512 427.985 554.760 C 435.729 553.982, 449.479 550.413, 456.932 547.248 L 461.203 545.434 454.050 538.686 C 446.813 531.859, 439.358 526, 437.909 526 C 437.474 526, 436.866 526.408, 436.558 526.906 M 362.313 563.697 C 362.654 564.249, 366.240 564.980, 370.282 565.322 C 385.683 566.624, 401.186 571.698, 414.842 579.905 C 436.428 592.879, 452.559 609.956, 484.015 653.139 C 513.386 693.458, 529.734 709.987, 556.047 725.969 C 573.986 736.865, 590.868 741.965, 611.500 742.723 C 619.200 743.006, 625.275 743.006, 625 742.723 C 624.725 742.440, 619.325 741.462, 613 740.550 C 599.846 738.652, 582.111 733.089, 570.334 727.168 C 552.037 717.968, 531.525 701.490, 516.465 683.890 C 503.620 668.879, 501.169 665.704, 484.515 642.500 C 465.778 616.393, 459.463 608.685, 446.346 595.915 C 424.506 574.653, 403.801 565.593, 372.052 563.406 C 365.195 562.934, 361.902 563.032, 362.313 563.697 M 622.070 596.847 L 617.640 597.500 624.703 604 C 628.587 607.575, 634.386 612.075, 637.590 614 L 643.414 617.500 663.457 618.060 C 684.641 618.652, 684.857 618.696, 700.750 625.666 C 701.438 625.967, 702 625.789, 702 625.270 C 702 623.980, 663.424 600.438, 657.920 598.370 C 653.152 596.578, 630.437 595.613, 622.070 596.847 M 611.645 609.368 C 609.658 634.888, 611.793 641.140, 631.154 666.500 C 633.674 669.800, 637.197 674.885, 638.984 677.800 C 640.771 680.715, 642.381 682.953, 642.561 682.772 C 642.741 682.592, 641.271 678.182, 639.293 672.972 C 635.930 664.114, 635.651 662.496, 634.989 648 C 634.473 636.720, 633.808 631.426, 632.546 628.556 C 630.124 623.049, 624.226 614.596, 617.762 607.368 L 612.278 601.236 611.645 609.368 M 662.040 628.894 L 652.580 629.500 658.189 634.285 C 665.675 640.671, 678.455 648.257, 685.107 650.262 C 688.073 651.156, 696.509 652.312, 703.853 652.831 C 716.613 653.733, 717.569 653.957, 725.353 657.857 C 737.130 663.757, 745.336 670.317, 764.581 689.222 C 773.975 698.450, 781.963 706, 782.331 706 C 785.460 706, 778.037 697.060, 757.553 676.163 C 736.883 655.075, 724.799 645.451, 709 637.494 C 693.032 629.452, 682.738 627.567, 662.040 628.894 M 645.157 647.112 C 645.525 660.831, 645.692 661.817, 648.751 668.319 C 652.375 676.021, 659.775 686.842, 671.416 701.458 C 680.442 712.791, 694.701 727.632, 695.651 726.682 C 696 726.333, 693.336 722.920, 689.731 719.098 C 682.091 710.999, 675.878 702.156, 672.216 694.168 C 670.100 689.554, 669.406 685.882, 668.480 674.421 C 667.588 663.359, 666.848 659.318, 665.029 655.559 C 662.291 649.904, 653.743 639.567, 648.493 635.563 L 644.770 632.723 645.157 647.112 M 677.008 662.715 C 677.032 680.948, 680.167 691.399, 688.909 702.386 C 697.644 713.364, 734.288 747.045, 735.824 745.509 C 736.096 745.238, 732.070 740.625, 726.878 735.258 C 708.132 715.880, 703.110 708.458, 700.947 696.937 C 698.741 685.181, 696.960 678.639, 694.775 674.264 C 692.596 669.900, 683.415 660.362, 679.250 658.133 C 677.037 656.949, 677 657.025, 677.008 662.715 M 703.971 675.250 C 706.084 679.788, 708.495 685.160, 709.330 687.190 C 711.842 693.297, 718.671 699.661, 730.768 707.166 C 744.022 715.390, 749.261 719.595, 764.779 734.466 C 770.983 740.411, 776.314 745.019, 776.626 744.707 C 776.939 744.394, 774.338 740.845, 770.847 736.819 C 756.380 720.136, 747.715 707.762, 741.945 695.543 C 736.001 682.957, 725.426 674.117, 710.777 669.489 C 706.443 668.120, 702.274 667, 701.513 667 C 700.534 667, 701.252 669.410, 703.971 675.250" stroke="none" fill="url(#gold-grad)" fill-rule="evenodd"/>
</svg>